<svg xmlns="http://www.w3.org/2000/svg" width="150" height="97.898" viewBox="0 0 150 97.898">
  <g id="Group_17" data-name="Group 17" transform="translate(-4.069 -3.326)">
    <path id="Path_227" data-name="Path 227" d="M145.978,288.668v-3.75a4.312,4.312,0,0,0-1.1-3.3,3.72,3.72,0,0,0-4.715.046,4.26,4.26,0,0,0-1.05,3.254v20.477a4.29,4.29,0,0,0,.857,3.133,3.594,3.594,0,0,0,5.114.01,4.626,4.626,0,0,0,.893-3.134v-2.427l6.429-1.726v13.645h-2.9l-1.3-2.9a7.808,7.808,0,0,1-6.834,3.453,8.529,8.529,0,0,1-6.523-2.395c-1.779-1.752-2.5-4.232-2.5-7.723v-19.6c0-3.585.886-6.236,2.738-8.108a11.33,11.33,0,0,1,14.573-.011c1.812,1.825,2.748,4.49,2.748,8.291v1.041Zm-4.357,7.9v5.621l8.951-2.407a2.365,2.365,0,0,0,1.481-1.023,2.548,2.548,0,0,0,.356-1.381v-3.708Zm-45.8,18.328h6.767V275.5H95.82Zm26.467-17.089h-.118l-8.236-22.3h-6.442v39.391h6.284V290.519h.1l8.616,24.375h6.073V275.5h-6.28ZM82.368,275.5H75.6v39.391H92.959v-5.882H82.368ZM66.841,296l5.955,18.9H65.771l-4.885-17.042-3.259.878v16.163H50.859V275.5h9.5c7.586,0,11.455,2.564,11.455,10.968C71.811,292.8,69.144,294.964,66.841,296Zm-2.95-5.8c.77-.8,1.156-1.864,1.156-3.987,0-2.346-.457-3.437-1.243-4.18-.808-.763-1.949-.905-3.779-.905h-2.4V292.7l2.533-.684A7.851,7.851,0,0,0,63.89,290.193Zm-18.651,5.844-11.353,3.049L36.4,283.358h.205l2.034,12.492,4.077-1.094a2.366,2.366,0,0,0,1.481-1.023,2.516,2.516,0,0,0,.278-1.826l-3.048-16.523-9.627,2.6-6.938,36.914h6.491l1.565-9.781,6.931-1.862,1.9,11.643h7.1ZM17.7,305.324a4.618,4.618,0,0,1-.889,3.24,3.2,3.2,0,0,1-2.543,1.037,3.18,3.18,0,0,1-2.6-1.109,4.211,4.211,0,0,1-.829-2.983V284.871a4.4,4.4,0,0,1,.922-3.074,3.217,3.217,0,0,1,2.509-1,3.191,3.191,0,0,1,2.577,1.076c.711.85.855,1.794.855,3.387v3.4l6.429-1.723v-1.429c0-6.882-3.862-10.551-10.03-10.551a9.932,9.932,0,0,0-7.254,2.622c-1.925,1.92-2.776,4.479-2.776,8.741v18.052c0,4.221.881,6.51,2.7,8.376a9.891,9.891,0,0,0,7.326,2.695c3.361,0,6.038-1.09,7.778-3.2,1.652-2,2.252-4.432,2.252-8.093v-2.7L17.7,303.181Z" transform="translate(0 -214.218)"/>
    <g id="Group_16" data-name="Group 16" transform="translate(31.84 3.326)">
      <path id="Path_228" data-name="Path 228" d="M219.271,35.328c2.383-3.162,6.466-8.652,11.274-15.149V3.326L135.458,28.872V61.827s8.217-2.213,74.087-19.9c.5-.133.961-.27,1.4-.407C214.272,40.467,216.485,39.023,219.271,35.328Z" transform="translate(-135.458 -3.326)"/>
      <path id="Path_229" data-name="Path 229" d="M500.932,98.144c2.383-3.162,6.466-8.652,11.274-15.149v-.017L497.3,86.982v9.487c0,2.542-.06,3.458-.76,4.84a6.521,6.521,0,0,1-3.932,3.026C495.932,103.283,498.146,101.839,500.932,98.144Z" transform="translate(-417.119 -66.142)" fill="#ff0001"/>
    </g>
    <path id="Path_230" data-name="Path 230" d="M698.575,276.523a1.6,1.6,0,1,1,1.6,1.565A1.554,1.554,0,0,1,698.575,276.523Zm1.6-1.236a1.237,1.237,0,1,0,1.19,1.236A1.184,1.184,0,0,0,700.178,275.286Zm-.279,2.11h-.346v-1.751h.662c.439,0,.679.139.679.519a.426.426,0,0,1-.422.468l.422.764h-.384l-.392-.747H699.9Zm0-1.017h.3c.253,0,.342-.08.342-.245s-.105-.22-.359-.22H699.9Z" transform="translate(-547.713 -214.218)"/>
  </g>
</svg>
